<?xml version="1.0" encoding="UTF-8"?>
<!-- Generator: Adobe Illustrator 15.0.0, SVG Export Plug-In . SVG Version: 6.00 Build 0)  -->
<!DOCTYPE svg PUBLIC "-//W3C//DTD SVG 1.1//EN" "http://www.w3.org/Graphics/SVG/1.1/DTD/svg11.dtd">
<svg version="1.1" id="Layer_1" xmlns="http://www.w3.org/2000/svg" xmlns:xlink="http://www.w3.org/1999/xlink" x="0px" y="0px" width="1188px" height="439px" viewBox="0 0 1188 439" enable-background="new 0 0 1188 439" xml:space="preserve">
<g>
	<g>
		<path fill="#FAD716" d="M561.04,6.63c18.61-1.1,37.3-2.42,55.93-1.05c10.45,1.66,20.97,2.94,31.38,4.8    c9.9,2.72,19.84,5.31,29.68,8.24c9.12,3.48,18.22,7.01,27.28,10.64c8.49,4.4,16.83,9.12,25.2,13.76    c7.01,4.87,13.5,10.45,20.35,15.53c7.21,5.91,13.39,12.97,20.32,19.2c7.2,6.92,12.05,15.71,17.51,23.96    c6.48,9.04,9.6,19.88,14.42,29.8c109.3-0.03,218.61,0.01,327.92-0.02c10.899-0.09,21.77,3.27,30.91,9.17    c7.51,5.54,13.71,13.1,16.65,22.04c1.75,5.6,1.58,11.51,1.68,17.3c0.18,29.15-0.09,58.31-0.02,87.47    c0.49,38.01,0.14,76.03,0.24,114.04c0.29,9.77-3.23,19.45-9.561,26.86c-8.68,11.22-22.89,17.29-36.91,17.38    c-357.67-0.02-715.33,0-1073,0c-7.94-0.68-16.39-1.47-23.15-6.11c-3.82-2.44-7.97-4.55-10.95-8.06    c-6.42-7.19-12.13-16.04-11.91-26.05c0.04-67.85-0.08-135.7-0.06-203.55c0.25-5.1-0.35-10.24,0.51-15.29    c2.47-11.76,10.54-21.84,20.66-28.06c8.72-4.97,18.83-7.08,28.81-7.09c106.21-0.15,212.42,0.11,318.63-0.14    c2.92-7.32,5.38-14.92,9.78-21.54c4.41-6.92,7.84-14.53,13.31-20.72c4.39-5.32,8.73-10.68,13.13-16    c5.8-5.48,11.81-10.75,17.64-16.21c4.16-3.99,9.28-6.72,13.95-10.04c6.02-4,11.84-8.37,18.35-11.57    c8.07-4.11,16.42-7.66,24.59-11.56c7.02-3.51,14.74-5.2,22.14-7.7c5.5-1.62,10.87-3.8,16.57-4.67    C542.37,9.9,551.66,7.99,561.04,6.63z M562.83,40.37c-9.45,1.81-18.86,3.87-28.29,5.81c-6.58,1.82-12.94,4.31-19.4,6.46    c-8.66,3.93-17.2,8.1-25.76,12.22c-7.73,4.91-15.42,9.88-23.05,14.94c-6.46,5.17-12.51,10.85-18.84,16.18    c-1.83,1.48-3.51,3.14-4.96,4.98c-5.11,6.24-10.5,12.25-15.52,18.55c-4.84,7.51-9.57,15.11-14.22,22.74    c-2.94,6.05-5.91,12.11-8.36,18.38c-8.13,0.28-16.27,0.04-24.41,0.12c-105.63,0.01-211.26-0.03-316.89,0.02    c-8.53,0.11-16.81,7.04-17.38,15.71c0,67.34-0.01,134.69,0.01,202.03c0.3,5.16,3.85,9.49,7.9,12.4    c4.79,3.24,10.84,2.89,16.35,2.84c354.67,0.01,709.33,0,1063.99,0c9.01-0.21,17.94-7.87,17.48-17.28    c0.05-64.34,0-128.68,0.03-193.02c-0.04-3.84,0.24-7.8-1.04-11.49c-3.11-7.01-10.71-12.06-18.479-11.22    c-116.95,0.03-233.9-0.02-350.85,0.02c-3.63-9.44-8.18-18.51-13.18-27.29c-7.18-9.81-13.35-20.44-21.72-29.32    c-6.55-6.1-12.88-12.45-19.57-18.4c-7.47-5.53-14.88-11.17-22.51-16.49c-8.19-4.43-16.4-8.83-24.69-13.08    c-8.84-3.33-17.75-6.49-26.65-9.64c-9.87-2.23-19.82-4.19-29.75-6.14c-10.01-0.76-20.03-1.62-30.06-2.17    C582.94,38.72,572.89,39.63,562.83,40.37z"/>
	</g>
</g>
<g>
	<g>
		<path fill="#00B760" d="M562.83,40.37c10.06-0.74,20.11-1.65,30.18-2.14c10.03,0.55,20.05,1.41,30.06,2.17    c9.93,1.95,19.88,3.91,29.75,6.14c8.9,3.15,17.81,6.31,26.65,9.64c8.29,4.25,16.5,8.65,24.69,13.08    c7.63,5.32,15.04,10.96,22.51,16.49c6.69,5.95,13.02,12.3,19.57,18.4c8.37,8.88,14.54,19.51,21.72,29.32    c5,8.78,9.55,17.85,13.18,27.29c116.95-0.04,233.9,0.01,350.85-0.02c7.77-0.84,15.37,4.21,18.479,11.22    c1.28,3.69,1,7.65,1.04,11.49c-0.03,64.34,0.021,128.68-0.03,193.02c0.46,9.41-8.47,17.07-17.48,17.28    c-354.66,0-709.32,0.01-1063.99,0c-5.51,0.05-11.56,0.4-16.35-2.84c-4.05-2.91-7.6-7.24-7.9-12.4    c-0.02-67.34-0.01-134.69-0.01-202.03c0.57-8.67,8.85-15.6,17.38-15.71c105.63-0.05,211.26-0.01,316.89-0.02    c8.14-0.08,16.28,0.16,24.41-0.12c2.45-6.27,5.42-12.33,8.36-18.38c4.65-7.63,9.38-15.23,14.22-22.74    c5.02-6.3,10.41-12.31,15.52-18.55c1.45-1.84,3.13-3.5,4.96-4.98c6.33-5.33,12.38-11.01,18.84-16.18    c7.63-5.06,15.32-10.03,23.05-14.94c8.56-4.12,17.1-8.29,25.76-12.22c6.46-2.15,12.82-4.64,19.4-6.46    C543.97,44.24,553.38,42.18,562.83,40.37z M93.25,196.26c0,55.91,0,111.82,0,167.73c8.75,0.01,17.5,0.01,26.25,0    c-0.04-22.72,0.06-45.45-0.05-68.17c11.73-0.46,24.44,1.67,35-4.76c4.35-3.73,8.58-7.99,10.83-13.36    c5.61-10.04,7.42-21.78,6.96-33.15c0.53-11.66-1.62-23.6-7.26-33.9c-1.03-1.64-2.57-2.87-3.83-4.32    c-2.69-3.6-7.08-5.17-10.84-7.34c-5.34-1.39-10.77-3.08-16.35-2.75C120.39,196.28,106.82,196.23,93.25,196.26z M183.51,196.01    c-0.01,55.99-0.02,111.98,0,167.98c21.33,0.02,42.65,0.01,63.98,0c0.01-8.09,0.02-16.17-0.01-24.25    c-12.91,0.02-25.82,0.01-38.73,0c0.02-47.9-0.05-95.79,0.04-143.69C200.36,195.95,191.93,196.02,183.51,196.01z M258.76,364    c8.26-0.04,16.53,0.08,24.79-0.06c1.79-12.24,3.62-24.47,5.51-36.69c8.49-0.06,16.98,0.12,25.47-0.1    c2.2,12.18,3.83,24.47,5.61,36.72c8.62,0.29,17.25,0.04,25.87,0.14c-9.07-55.98-18.02-111.97-27.01-167.96    c-11.03-0.14-22.07,0.05-33.09-0.1C276.61,251.92,267.88,307.99,258.76,364z M362,196c-0.02,8.64,0.04,17.29-0.04,25.93    c13.69,0.14,27.37,0.06,41.05,0.03c-14.76,38.7-29.88,77.27-44.61,115.98c-0.37,8.66-0.04,17.37-0.15,26.05    c23.77,0.1,47.55-0.16,71.31,0.13c0.43-8.69,0.07-17.41,0.19-26.11c-14.98-0.1-29.97,0.15-44.95-0.12    c14.94-38.94,29.83-77.9,44.67-116.87c0.69-8.27,0.03-16.65,0.32-24.97C407.19,195.93,384.6,196.04,362,196z M469.52,196.04    c-9.09,55.99-18.16,111.98-27.26,167.97c8.21-0.08,16.42,0.09,24.63-0.07c0.2-0.65,0.6-1.95,0.8-2.6    c1.64-11.37,3.37-22.73,5.1-34.08c8.47-0.03,16.94,0.02,25.4-0.03c1.84,12.19,3.79,24.37,5.43,36.59    c8.61,0.42,17.25,0.06,25.87,0.17c-9.03-55.98-18-111.97-27.01-167.95C491.49,195.98,480.51,195.98,469.52,196.04z M578.22,201.65    c-7.13,5.2-13.6,11.89-16.61,20.36c-5.53,15.51-2.16,33.78,8.58,46.28c7.12,7.89,14.26,15.75,21.5,23.53    c5.15,4.85,9.79,10.21,14.09,15.82c3.63,5.71,7.66,11.78,7.47,18.84c0.72,5.82-2.88,11.64-8.06,14.19    c-6.74,3.83-15.91,1.12-20.08-5.28c-3.07-5.37-3.04-11.73-4.6-17.57c-8.01,1.37-16.09,2.29-24.09,3.66    c0.58,7.43,2.21,14.76,4.72,21.78c3.58,8.44,10.18,15.63,18.38,19.76c7.98,3.49,16.88,4.21,25.48,3.53    c12.35-1.29,22.84-9.89,28.84-20.43c6.44-14.41,5.42-31.67-1.66-45.66c-2.93-4.39-5.73-8.94-9.59-12.58    c-9.02-9.66-18.89-18.56-26.9-29.12c-4.64-5.03-7.67-11.24-10.36-17.46c-2.69-6.97-0.93-16.58,6.25-20.1    c3.84-2.36,8.65-1.41,12.64,0.04c6.32,3.99,6.88,12.39,7.37,19.13c8.39-1.17,16.78-2.36,25.18-3.47    c-0.65-5.88-2.27-11.57-3.94-17.22c-4.45-10.82-13.67-19.93-25.27-22.63C597.73,195.12,586.76,195.99,578.22,201.65z     M648.76,196.01c0,55.99-0.02,111.99,0,167.99c22.75-0.01,45.49,0,68.24-0.01c-0.01-8.41,0.01-16.83-0.01-25.24    c-14.08,0-28.16,0.01-42.23-0.01c-0.01-16.67-0.02-33.33,0-50c10.16,0.01,20.32,0.02,30.48,0c0.01-8.16,0.01-16.32,0-24.48    c-10.15,0-20.3-0.04-30.45,0.02c-0.09-14.67-0.02-29.35-0.03-44.02c14.07-0.02,28.15-0.01,42.23-0.01    c0.02-8.08,0-16.16,0.01-24.25C694.25,196,671.5,196,648.76,196.01z M752.85,198.12c-11.01,4.69-20.57,13.82-24,25.49    c-4.14,10.98-2.1,23.23,1.96,33.93c6.73,12.17,16.61,22.09,25.97,32.22c9.65,9.22,19.43,19.18,23.87,32.08    c0.73,2.51,0.19,5.16,0.01,7.72c-0.52,5.65-4.84,10.61-10.23,12.22c-5.87,1.58-12.95,0.05-16.69-5.02    c-4.23-5.36-4.15-12.47-5.31-18.87c-8.16,1.13-16.31,2.37-24.47,3.46c0.84,10.5,3.36,21.07,9.27,29.92    c5.37,6.95,12.85,12.84,21.71,14.3c9.04,1.65,18.77,2.13,27.38-1.63c5.24-2.04,9.25-6.06,13.32-9.78    c10.33-11.38,12.01-28.15,8.33-42.58c-2.34-6.84-4.82-13.85-9.79-19.29c-6.93-7.71-13.75-15.55-21.28-22.67    c-6.39-6.4-11.91-13.58-16.7-21.24c-1.63-3.49-4.1-6.79-4.12-10.8c-0.92-6.14,1.01-14,7.26-16.6c4-2.06,8.85-1.23,12.82,0.46    c6.23,4.13,6.15,12.37,7.27,18.97c8.17-1.3,16.37-2.37,24.57-3.48c-0.66-8.93-2.94-17.95-7.85-25.53    c-4.71-5.82-10.64-11.04-17.97-13.16C770.11,194.83,761.07,195.89,752.85,198.12z M807.26,364.01c8.28-0.12,16.58,0.19,24.86-0.16    c1.76-12.22,3.74-24.41,5.68-36.6c8.47,0,16.93,0,25.4-0.01c1.84,12.27,3.15,24.63,5.22,36.86c8.67-0.23,17.36-0.03,26.05-0.11    c-8.979-55.99-18-111.97-26.99-167.95c-11.04-0.11-22.09,0.03-33.13-0.07C825.18,251.95,816.34,308,807.26,364.01z M904,196.01    c0,55.99,0,111.98,0,167.98c7.33,0.02,14.66,0,22,0.01c0-34.15,0-68.3,0-102.46c0.16-8.68-0.86-17.32-0.85-26    c0.07-1.67-0.3-3.3-0.76-4.88c0.32,0.68,0.61,1.35,0.88,2.07c7.15,43.76,14.51,87.5,21.69,131.26c4.06-0.08,8.13,0.2,12.19-0.16    c4.95-29.68,10.34-59.29,15.45-88.94c2.52-14.46,5.16-28.92,6.89-43.49c0.78,9.01-0.95,18.04-0.99,27.07    c0.02,35.17-0.02,70.34,0.01,105.52c7.41,0.02,14.83,0.01,22.25,0c-0.01-55.99-0.04-111.98,0.01-167.96    c-10.75-0.04-21.5-0.05-32.25,0c-5.02,31.75-10.01,63.51-15.02,95.26c-1.1,6.4-1.79,12.87-1.92,19.36    c-0.67-4.63-0.53-9.33-1.04-13.98c-5.48-33.53-11.08-67.04-16.51-100.58C925.35,195.88,914.67,196.06,904,196.01z M1047.56,197.21    c-9.73,2.32-19.34,7.86-24.06,17c-5.19,7.75-5.79,17.29-5.5,26.32c-0.01,28.31,0.01,56.63-0.01,84.94    c0.17,11.58,3.63,23.68,11.87,32.13c12.94,11.42,32.57,12.35,48.03,5.93c10.05-4.22,16.5-13.97,19.32-24.18    c2.35-11.14,0.71-22.57,1.48-33.84c0.25-16.99-0.26-34,0.33-50.99c-0.13-10.58,0.68-21.35-2.17-31.67    c-2.57-10.06-9.96-18.52-19.15-23.16c-3.87-1.4-7.88-2.45-11.89-3.3C1059.72,195.98,1053.58,196.26,1047.56,197.21z     M1101.73,340.16c-4.66,3.09-6.95,9.48-5.17,14.83c1.93,5.87,8.2,10.21,14.4,9.5c3.15-0.02,5.63-2.24,8.29-3.64    c1.29-2.4,3.31-4.59,3.48-7.44c1.28-6.2-2.78-12.86-8.59-15.07C1110.04,337.49,1105.08,337.18,1101.73,340.16z"/>
	</g>
	<path fill="#00B760" d="M1053.38,219.98c4.45-1.74,9.6-0.96,13.54,1.66c6.39,6.19,4.88,15.77,5.08,23.82   c-0.39,24.68-0.09,49.37-0.5,74.04c-0.32,7.3,1.54,15.69-3.71,21.75c-5.86,5.69-17.66,4.66-21.28-3.14   c-1.5-3.67-1.61-7.71-1.52-11.61c0.24-31.02-0.57-62.02-0.14-93.03C1045.13,228.1,1047.33,221.09,1053.38,219.98z"/>
	<path fill="#00B760" d="M119.48,271.48c0.11-17.09-0.14-34.19,0.13-51.28c7.48,0.51,17.04-1.52,22.35,5.2   c2.52,4.17,3.61,9.21,3.56,14.06c-0.21,8.66,1.02,17.75-2.79,25.85c-1.62,3.38-5.11,5.51-8.7,6.16   C129.18,271.57,124.33,271.47,119.48,271.48z"/>
	<path fill="#00B760" d="M301.24,233.51c1.31-0.33,2.03,0.11,2.16,1.31c2.79,22.9,5.52,45.8,8.37,68.68c-6.42,0-12.84,0-19.25,0   C295.43,280.17,298.4,256.85,301.24,233.51z"/>
	<path fill="#00B760" d="M485.27,233.7c0.36-0.02,1.08-0.07,1.44-0.09c2.96,23.28,5.61,46.61,8.57,69.89c-6.43,0-12.85,0-19.27,0   C479.12,280.24,482.12,256.96,485.27,233.7z"/>
	<path fill="#00B760" d="M849.78,233.98l0.41-0.58c0.32,0.08,0.97,0.25,1.3,0.33c2.91,23.25,5.6,46.53,8.54,69.77   c-6.35,0-12.69,0-19.02,0C843.99,280.34,846.73,257.13,849.78,233.98z"/>
	<g>
		<path fill="#00B760" d="M1106.34,340.02c7.26-2.13,15.7,4.35,14.48,12.09c0.27,8.1-10.03,12.93-16.62,9.15    c-4.33-2.26-7.03-7.59-5.9-12.39C1098.95,344.67,1102.54,341.48,1106.34,340.02z M1104,343.25c0,5-0.01,10,0,14.99    c0.75,0.01,2.24,0.02,2.98,0.02c0.01-2.02,0.01-4.04,0.03-6.06c0.66,0.05,1.99,0.15,2.65,0.2c0.89,1.95,1.83,3.89,2.81,5.81    c1.19,0.02,2.4,0.05,3.61,0.08c-1.07-2.24-2.15-4.49-3.28-6.69c3.05-0.64,4.27-4.19,2.71-6.77    C1112.17,342.38,1107.82,343.47,1104,343.25z"/>
	</g>
	<path fill="#00B760" d="M1107,344.9c1.95,0.4,5.5-0.04,5.77,2.7c0.23,3.08-3.79,2.34-5.78,2.43   C1106.99,348.32,1106.99,346.61,1107,344.9z"/>
</g>
<g>
	<g>
		<path fill="#FFFFFF" d="M93.25,196.26c13.57-0.03,27.14,0.02,40.71-0.02c5.58-0.33,11.01,1.36,16.35,2.75    c3.76,2.17,8.15,3.74,10.84,7.34c1.26,1.45,2.8,2.68,3.83,4.32c5.64,10.3,7.79,22.24,7.26,33.9c0.46,11.37-1.35,23.11-6.96,33.15    c-2.25,5.37-6.48,9.63-10.83,13.36c-10.56,6.43-23.27,4.3-35,4.76c0.11,22.72,0.01,45.45,0.05,68.17c-8.75,0.01-17.5,0.01-26.25,0    C93.25,308.08,93.25,252.17,93.25,196.26z M119.48,271.48c4.85-0.01,9.7,0.09,14.55-0.01c3.59-0.65,7.08-2.78,8.7-6.16    c3.81-8.1,2.58-17.19,2.79-25.85c0.05-4.85-1.04-9.89-3.56-14.06c-5.31-6.72-14.87-4.69-22.35-5.2    C119.34,237.29,119.59,254.39,119.48,271.48z"/>
	</g>
	<path fill="#FFFFFF" d="M183.51,196.01c8.42,0.01,16.85-0.06,25.28,0.04c-0.09,47.9-0.02,95.79-0.04,143.69   c12.91,0.01,25.82,0.02,38.73,0c0.03,8.08,0.02,16.16,0.01,24.25c-21.33,0.01-42.65,0.02-63.98,0   C183.49,307.99,183.5,252,183.51,196.01z"/>
	<g>
		<path fill="#FFFFFF" d="M258.76,364c9.12-56.01,17.85-112.08,27.15-168.05c11.02,0.15,22.06-0.04,33.09,0.1    c8.99,55.99,17.94,111.98,27.01,167.96c-8.62-0.1-17.25,0.15-25.87-0.14c-1.78-12.25-3.41-24.54-5.61-36.72    c-8.49,0.22-16.98,0.04-25.47,0.1c-1.89,12.22-3.72,24.45-5.51,36.69C275.29,364.08,267.02,363.96,258.76,364z M301.24,233.51    c-2.84,23.34-5.81,46.66-8.72,69.99c6.41,0,12.83,0,19.25,0c-2.85-22.88-5.58-45.78-8.37-68.68    C303.27,233.62,302.55,233.18,301.24,233.51z"/>
	</g>
	<path fill="#FFFFFF" d="M362,196c22.6,0.04,45.19-0.07,67.79,0.05c-0.29,8.32,0.37,16.7-0.32,24.97   c-14.84,38.97-29.73,77.93-44.67,116.87c14.98,0.27,29.97,0.02,44.95,0.12c-0.12,8.7,0.24,17.42-0.19,26.11   c-23.76-0.29-47.54-0.03-71.31-0.13c0.11-8.68-0.22-17.39,0.15-26.05c14.73-38.71,29.85-77.28,44.61-115.98   c-13.68,0.03-27.36,0.11-41.05-0.03C362.04,213.29,361.98,204.64,362,196z"/>
	<g>
		<path fill="#FFFFFF" d="M469.52,196.04c10.99-0.06,21.97-0.06,32.96,0c9.01,55.98,17.98,111.97,27.01,167.95    c-8.62-0.11-17.26,0.25-25.87-0.17c-1.64-12.22-3.59-24.4-5.43-36.59c-8.46,0.05-16.93,0-25.4,0.03    c-1.73,11.35-3.46,22.71-5.1,34.08c-0.2,0.65-0.6,1.95-0.8,2.6c-8.21,0.16-16.42-0.01-24.63,0.07    C451.36,308.02,460.43,252.03,469.52,196.04z M485.27,233.7c-3.15,23.26-6.15,46.54-9.26,69.8c6.42,0,12.84,0,19.27,0    c-2.96-23.28-5.61-46.61-8.57-69.89C486.35,233.63,485.63,233.68,485.27,233.7z"/>
	</g>
	<path fill="#FFFFFF" d="M578.22,201.65c8.54-5.66,19.51-6.53,29.34-4.6c11.6,2.7,20.82,11.81,25.27,22.63   c1.67,5.65,3.29,11.34,3.94,17.22c-8.4,1.11-16.79,2.3-25.18,3.47c-0.49-6.74-1.05-15.14-7.37-19.13c-3.99-1.45-8.8-2.4-12.64-0.04   c-7.18,3.52-8.94,13.13-6.25,20.1c2.69,6.22,5.72,12.43,10.36,17.46c8.01,10.56,17.88,19.46,26.9,29.12   c3.86,3.64,6.66,8.19,9.59,12.58c7.08,13.99,8.1,31.25,1.66,45.66c-6,10.54-16.49,19.14-28.84,20.43   c-8.6,0.68-17.5-0.04-25.48-3.53c-8.2-4.13-14.8-11.32-18.38-19.76c-2.51-7.02-4.14-14.35-4.72-21.78c8-1.37,16.08-2.29,24.09-3.66   c1.56,5.84,1.53,12.2,4.6,17.57c4.17,6.4,13.34,9.11,20.08,5.28c5.18-2.55,8.78-8.37,8.06-14.19c0.19-7.06-3.84-13.13-7.47-18.84   c-4.3-5.61-8.94-10.97-14.09-15.82c-7.24-7.78-14.38-15.64-21.5-23.53c-10.74-12.5-14.11-30.77-8.58-46.28   C564.62,213.54,571.09,206.85,578.22,201.65z"/>
	<path fill="#FFFFFF" d="M648.76,196.01C671.5,196,694.25,196,717,196c-0.01,8.09,0.01,16.17-0.01,24.25   c-14.08,0-28.16-0.01-42.23,0.01c0.01,14.67-0.06,29.35,0.03,44.02c10.15-0.06,20.3-0.02,30.45-0.02c0.01,8.16,0.01,16.32,0,24.48   c-10.16,0.02-20.32,0.01-30.48,0c-0.02,16.67-0.01,33.33,0,50c14.07,0.02,28.15,0.01,42.23,0.01c0.02,8.41,0,16.83,0.01,25.24   c-22.75,0.01-45.49,0-68.24,0.01C648.74,308,648.76,252,648.76,196.01z"/>
	<path fill="#FFFFFF" d="M752.85,198.12c8.22-2.23,17.26-3.29,25.33,0.12c7.33,2.12,13.26,7.34,17.97,13.16   c4.91,7.58,7.19,16.6,7.85,25.53c-8.2,1.11-16.4,2.18-24.57,3.48c-1.12-6.6-1.04-14.84-7.27-18.97c-3.97-1.69-8.82-2.52-12.82-0.46   c-6.25,2.6-8.18,10.46-7.26,16.6c0.02,4.01,2.49,7.31,4.12,10.8c4.79,7.66,10.31,14.84,16.7,21.24   c7.53,7.12,14.35,14.96,21.28,22.67c4.97,5.44,7.45,12.45,9.79,19.29c3.68,14.43,2,31.2-8.33,42.58   c-4.07,3.72-8.08,7.74-13.32,9.78c-8.61,3.76-18.34,3.28-27.38,1.63c-8.86-1.46-16.34-7.35-21.71-14.3   c-5.91-8.85-8.43-19.42-9.27-29.92c8.16-1.09,16.31-2.33,24.47-3.46c1.16,6.4,1.08,13.51,5.31,18.87   c3.74,5.07,10.82,6.6,16.69,5.02c5.39-1.61,9.71-6.57,10.23-12.22c0.18-2.56,0.72-5.21-0.01-7.72   c-4.44-12.9-14.22-22.86-23.87-32.08c-9.36-10.13-19.24-20.05-25.97-32.22c-4.06-10.7-6.1-22.95-1.96-33.93   C732.28,211.94,741.84,202.81,752.85,198.12z"/>
	<g>
		<path fill="#FFFFFF" d="M807.26,364.01c9.08-56.01,17.92-112.06,27.09-168.04c11.04,0.1,22.09-0.04,33.13,0.07    c8.99,55.98,18.01,111.96,26.99,167.95c-8.69,0.08-17.38-0.12-26.05,0.11c-2.07-12.23-3.38-24.59-5.22-36.86    c-8.47,0.01-16.93,0.01-25.4,0.01c-1.94,12.19-3.92,24.38-5.68,36.6C823.84,364.2,815.54,363.89,807.26,364.01z M849.78,233.98    c-3.05,23.15-5.79,46.36-8.77,69.52c6.33,0,12.67,0,19.02,0c-2.94-23.24-5.63-46.52-8.54-69.77c-0.33-0.08-0.98-0.25-1.3-0.33    L849.78,233.98z"/>
	</g>
	<path fill="#FFFFFF" d="M904,196.01c10.67,0.05,21.35-0.13,32.03,0.08c5.43,33.54,11.03,67.05,16.51,100.58   c0.51,4.65,0.37,9.35,1.04,13.98c0.13-6.49,0.82-12.96,1.92-19.36c5.01-31.75,10-63.51,15.02-95.26c10.75-0.05,21.5-0.04,32.25,0   c-0.05,55.98-0.02,111.97-0.01,167.96c-7.42,0.01-14.84,0.02-22.25,0c-0.03-35.18,0.01-70.35-0.01-105.52   c0.04-9.03,1.77-18.06,0.99-27.07c-1.73,14.57-4.37,29.03-6.89,43.49c-5.11,29.65-10.5,59.26-15.45,88.94   c-4.06,0.36-8.13,0.08-12.19,0.16c-7.18-43.76-14.54-87.5-21.69-131.26c-0.27-0.72-0.56-1.39-0.88-2.07   c0.46,1.58,0.83,3.21,0.76,4.88c-0.01,8.68,1.01,17.32,0.85,26c0,34.16,0,68.31,0,102.46c-7.34-0.01-14.67,0.01-22-0.01   C904,307.99,904,252,904,196.01z"/>
	<g>
		<path fill="#FFFFFF" d="M1047.56,197.21c6.02-0.95,12.16-1.23,18.25-0.82c4.01,0.85,8.02,1.9,11.89,3.3    c9.19,4.64,16.58,13.1,19.15,23.16c2.85,10.32,2.04,21.09,2.17,31.67c-0.59,16.99-0.08,34-0.33,50.99    c-0.77,11.27,0.87,22.7-1.48,33.84c-2.82,10.21-9.27,19.96-19.32,24.18c-15.46,6.42-35.09,5.49-48.03-5.93    c-8.24-8.45-11.7-20.55-11.87-32.13c0.02-28.31,0-56.63,0.01-84.94c-0.29-9.03,0.31-18.57,5.5-26.32    C1028.22,205.07,1037.83,199.53,1047.56,197.21z M1053.38,219.98c-6.05,1.11-8.25,8.12-8.53,13.49    c-0.43,31.01,0.38,62.01,0.14,93.03c-0.09,3.9,0.02,7.94,1.52,11.61c3.62,7.8,15.42,8.83,21.28,3.14    c5.25-6.06,3.39-14.45,3.71-21.75c0.41-24.67,0.11-49.36,0.5-74.04c-0.2-8.05,1.31-17.63-5.08-23.82    C1062.98,219.02,1057.83,218.24,1053.38,219.98z"/>
	</g>
	<g>
		<path fill="#FFFFFF" d="M1101.73,340.16c3.35-2.98,8.31-2.67,12.41-1.82c5.81,2.21,9.87,8.87,8.59,15.07    c-0.17,2.85-2.19,5.04-3.48,7.44c-2.66,1.4-5.14,3.62-8.29,3.64c-6.2,0.71-12.47-3.63-14.4-9.5    C1094.78,349.64,1097.07,343.25,1101.73,340.16z M1106.34,340.02c-3.8,1.46-7.39,4.65-8.04,8.85c-1.13,4.8,1.57,10.13,5.9,12.39    c6.59,3.78,16.89-1.05,16.62-9.15C1122.04,344.37,1113.6,337.89,1106.34,340.02z"/>
	</g>
	<g>
		<path fill="#FFFFFF" d="M1104,343.25c3.82,0.22,8.17-0.87,11.51,1.58c1.56,2.58,0.34,6.13-2.71,6.77c1.13,2.2,2.21,4.45,3.28,6.69    c-1.21-0.03-2.42-0.06-3.61-0.08c-0.979-1.92-1.92-3.86-2.81-5.81c-0.66-0.05-1.99-0.15-2.65-0.2c-0.02,2.02-0.02,4.04-0.03,6.06    c-0.74,0-2.23-0.01-2.98-0.02C1103.99,353.25,1104,348.25,1104,343.25z M1107,344.9c-0.01,1.71-0.01,3.42-0.01,5.13    c1.99-0.09,6.01,0.65,5.78-2.43C1112.5,344.86,1108.95,345.3,1107,344.9z"/>
	</g>
</g>
<polyline fill="#FAD716" points="419.768,127.997 771.937,127.997 789.474,160.76 402.097,160.63 "/>
<path fill="#FAD716" d="M753.334,96.333"/>
<path fill="none" stroke="#FAD716" stroke-miterlimit="10" d="M738.667,134.333C713.334,147,767,140,767,140l-5-35.333l33,29  l-5.527,16h-44.807L738.667,134.333z"/>
<path fill="none" stroke="#FAD716" stroke-width="11" stroke-miterlimit="10" d="M743.659,93.667c0,0,32.188,30.426-11.787,43.333"/>
<path fill="none" stroke="#FAD716" stroke-width="11" stroke-miterlimit="10" d="M441.539,92.652c0,0-30.407,30.426,11.134,43.333"/>
<rect x="421.667" y="118.667" fill="none" stroke="#FAD716" stroke-width="11" stroke-miterlimit="10" width="9.138" height="13.333"/>
<rect x="758.667" y="123.667" fill="none" stroke="#FAD716" stroke-width="11" stroke-miterlimit="10" width="5.667" height="5.333"/>
<g>
	<path fill="#F9F9F9" d="M547.586,118.667H536.43V74.821c-3.309,1.204-7.889,1.805-13.74,1.805v-9.393   c9.188,0,14.438-3.459,15.75-10.377h9.146V118.667z"/>
	<path fill="#F9F9F9" d="M607.018,118.667h-41.672c0-5.004,1.175-9.283,3.527-12.838c1.093-1.641,2.666-3.459,4.717-5.455   c2.051-1.996,4.58-4.21,7.588-6.645c2.68-2.16,4.936-4.061,6.768-5.701c1.832-1.641,3.308-3.179,4.43-4.614   c1.121-1.436,1.921-2.851,2.399-4.245c0.478-1.395,0.718-2.926,0.718-4.594c0-2.625-0.738-4.669-2.215-6.132   c-1.477-1.462-3.583-2.194-6.316-2.194c-1.148,0-2.242,0.226-3.281,0.677c-1.04,0.451-1.955,1.128-2.748,2.03   c-0.793,0.902-1.456,2.03-1.989,3.384s-0.855,2.919-0.964,4.696h-11.443c0.246-3.062,0.909-5.838,1.989-8.326   c1.08-2.488,2.508-4.607,4.286-6.357c1.777-1.75,3.876-3.103,6.296-4.061c2.42-0.957,5.092-1.436,8.019-1.436   c3.144,0,5.947,0.458,8.408,1.374c2.461,0.917,4.525,2.174,6.193,3.773c1.667,1.6,2.939,3.486,3.814,5.66   c0.875,2.174,1.313,4.532,1.313,7.075c0,2.324-0.314,4.478-0.943,6.46c-0.629,1.983-1.573,3.862-2.83,5.64   c-1.176,1.641-2.947,3.603-5.312,5.886c-2.365,2.283-5.257,4.86-8.675,7.731c-2.024,1.723-3.767,3.247-5.229,4.573   c-1.463,1.327-2.55,2.399-3.261,3.22h26.414V118.667z"/>
	<path fill="#F9F9F9" d="M652.34,73.509c0,2.188-0.465,4.3-1.395,6.337c-0.93,2.037-2.352,3.794-4.266,5.271   c2.789,1.422,4.915,3.439,6.378,6.05c1.462,2.611,2.194,5.558,2.194,8.839c0,2.898-0.533,5.551-1.6,7.957   c-1.066,2.406-2.537,4.478-4.409,6.214c-1.873,1.737-4.075,3.083-6.604,4.04c-2.529,0.957-5.257,1.436-8.183,1.436   c-2.953,0-5.66-0.472-8.121-1.415s-4.594-2.276-6.398-3.999s-3.234-3.794-4.286-6.214c-1.053-2.42-1.661-5.12-1.825-8.101h11.525   c0,1.395,0.198,2.721,0.595,3.979c0.396,1.258,0.984,2.358,1.764,3.302s1.729,1.688,2.851,2.235c1.121,0.547,2.42,0.82,3.896,0.82   c1.421,0,2.713-0.252,3.876-0.759c1.162-0.506,2.153-1.203,2.974-2.092c0.82-0.888,1.449-1.955,1.887-3.199   c0.437-1.244,0.656-2.604,0.656-4.081c0-3.062-0.889-5.394-2.666-6.993c-1.778-1.6-4.403-2.399-7.875-2.399h-4.717v-9.352h3.568   c5.879,0,8.818-2.666,8.818-7.998c0-2.324-0.609-4.095-1.825-5.312c-1.217-1.216-2.96-1.825-5.229-1.825   c-4.703,0-7.383,3.021-8.039,9.064h-11.402c0.328-3.008,1.046-5.66,2.153-7.957s2.508-4.225,4.204-5.783   c1.695-1.559,3.644-2.734,5.845-3.527c2.201-0.793,4.559-1.189,7.075-1.189c2.816,0,5.366,0.41,7.649,1.23   c2.283,0.82,4.238,1.969,5.865,3.445c1.626,1.477,2.877,3.234,3.753,5.271C651.903,68.84,652.34,71.075,652.34,73.509z"/>
</g>
</svg>