<?xml version="1.0" encoding="UTF-8" standalone="no"?>
<!-- Created with Inkscape (http://www.inkscape.org/) -->
<svg id="svg4246" xmlns:rdf="http://www.w3.org/1999/02/22-rdf-syntax-ns#" xmlns="http://www.w3.org/2000/svg" height="67.49mm" width="143.5mm" version="1.1" xmlns:cc="http://creativecommons.org/ns#" xmlns:dc="http://purl.org/dc/elements/1.1/" viewBox="0 0 508.45456 239.1374">
 <metadata id="metadata4251">
  <rdf:RDF>
   <cc:Work rdf:about="">
    <dc:format>image/svg+xml</dc:format>
    <dc:type rdf:resource="http://purl.org/dc/dcmitype/StillImage"/>
    <dc:title/>
   </cc:Work>
  </rdf:RDF>
 </metadata>
 <g id="layer1" transform="translate(-531.81 99.936)">
  <g id="g5244" transform="translate(-211.71 -187.99)">
   <path id="path5248" d="m819.63 194.59c-0.92702-1.5 1.8185-4.5634 5.2899-5.9026 1.4727-0.56811 7.8527-3.0409 14.178-5.4951 12.185-4.7278 33.718-10.084 36.401-9.0545 5.1121 1.9617-1.1492 7.2145-13.647 11.448-4.5397 1.538-10.051 3.5581-12.248 4.4892-2.1966 0.93101-7.8216 2.3483-12.5 3.1496-14.274 2.4447-16.69 2.6334-17.474 1.3648zm-47.415-4.683c-2.9552-2.0699-5.1169-7.2034-5.1169-12.151 0-3.624 9.7987-41.961 12.038-47.097 1.625-3.7276 0.53606-3.668-7.2596 0.39777-21.235 11.075-27.203 21.539-14.179 24.862 7.8311 1.9977 7.4258 6.9952-0.59929 7.3903-10.383 0.51118-15.132-4.8034-13.131-14.693 2.0711-10.233 8.4402-16.197 27.631-25.871 6.766-3.4107 11.367-6.512 14.227-9.5895 5.6091-6.0357 13.273-8.1708 13.273-3.6977 0 0.93826-1.3912 3.0276-3.0916 4.643-4.8004 4.5605-6.7671 9.3692-12.645 30.917-3.0035 11.011-6.0916 22.27-6.8624 25.02-3.4748 12.396 2.951 17.026 12.402 8.9366 5.9404-5.0848 6.1146-5.5487 14.242-37.937 7.6255-30.388 8.4795-32.5 13.141-32.5 4.3725 0 4.3033 0.87264-2.0648 26.044-9.5978 37.937-9.7157 39.956-2.3346 39.956 7.3326 0 9.2319-4.6637 17.716-43.5 8.7739-40.165 10.221-42.942 22.396-42.982 7.0631-0.02298 8.5131 4.0408 2.173 6.09-4.747 1.5343-8.6084 6.2238-9.8897 12.011-0.5944 2.6846-3.1558 14.331-5.6919 25.881-8.0993 36.885-10.654 43.18-19.44 47.908-7.3841 3.9736-12.907 4.0598-16.87 0.26327-2.9527-2.8284-2.9527-2.8284-7.7915 2.3447-7.8859 8.4306-16.617 11.313-22.271 7.3531zm83.132-25.58c-13.04-4.3282-15.128-20.219-5.2316-39.823 10.026-19.861 32.62-16.205 26.911 4.3551-2.2154 7.9782-8.0543 12.193-19.928 14.384-4.5 0.83061-4.5 0.83061-4.4504 6.1912 0.10762 11.626 11.561 11.916 22.099 0.55912 4.3564-4.6947 7.3515-5.1653 7.3515-1.1552 0 7.2854-18.753 18.143-26.751 15.489zm7.8312-28.064c6.4158-4.3236 9.1183-16.913 3.7636-17.532-4.3452-0.50281-10.358 7.5915-12.299 16.557-0.89368 4.1276 3.1686 4.5916 8.5353 0.97502z" fill="#44382a"/>
   <path id="path5188" d="m786.55 323.68c-17.592-1.1246-17.72-1.349-18.501-32.642-1.4633-58.61-0.80929-77.348 2.8124-80.583 6.2739-5.604 51.17-3.8809 62.524 2.3996 15.498 8.5731 19.435 36.285 6.8366 48.12-3.9855 3.7441-3.9323 5.3895 0.30705 9.4985 7.9353 7.6912 10.617 23.446 5.6273 33.064-8.9794 17.312-24.077 22.413-59.607 20.142zm21.418-27.247c9.2549-3.2263 5.0481-17.157-5.6129-18.587-6.6438-0.89111-7.5036 0.40917-6.6855 10.109 0.88265 10.466 2.8014 11.788 12.298 8.4775zm-0.6403-46.019c8.6958-4.6539 2.7899-18.435-7.5766-17.679-4.155 0.30286-4.155 0.30286-4.4492 8.784-0.3812 10.99 3.1838 13.627 12.026 8.895zm71.095 73.496c-3.8299-0.86467-7.0059-5.0247-7.7279-10.122-1.1969-8.4499-2.5378-46.086-2.5688-72.099-0.0411-34.541-2.6571-32.15 35.179-32.15 33.975 0 31.418-0.99308 32.339 12.564 0.97429 14.348-0.78156 15.874-17.111 14.869-16.215-0.99854-16.601-0.83684-16.234 6.8071 0.35384 7.3621 0.6199 7.5076 14.007 7.6608 10.368 0.11865 11.27 1.5067 10.649 16.401-0.47949 11.513-0.61484 11.626-14.391 11.945-10.968 0.25398-10.968 0.25398-11.264 6.4441-0.38676 8.0837 0.0707 8.305 16.893 8.1731 17.006-0.13339 16.903-0.22359 16.903 14.748 0 14.714 0.44753 14.388-19.75 14.394-8.6625 0.003-20.025 0.19687-25.25 0.43115-5.225 0.23429-10.478 0.2052-11.673-0.0646zm81.31-0.87168c-4.0623-1.3168-5.7584-4.7177-4.4196-8.862 0.55753-1.7259 2.0667-7.0082 3.3537-11.738 1.287-4.7302 3.3124-11.03 4.5009-14 4.6934-11.728 8.271-23.312 13.555-43.89 8.5958-33.474 9.805-35.009 27.57-35.009 14.455 0 15.644 0.64802 19.638 10.709 3.5087 8.8382 12.594 37 13.643 42.291 0.3818 1.925 3.5188 12.275 6.9711 23 12.648 39.293 12.873 37.384-4.4422 37.782-14.443 0.33154-15.257-0.0728-17.146-8.5133-2.1171-9.4602-2.4863-9.6614-18.541-10.102-15.863-0.43565-15.195-0.74512-17.77 8.2315-3.1626 11.026-12.847 14.662-26.913 10.102zm49.253-46.107c3.2475-1.0219-3.9269-33.893-7.3974-33.893-2.7457 0-10.292 29.138-8.4416 32.595 1.3456 2.5143 9.7772 3.2049 15.839 1.2973zm66.742 46.327c-2.1006-1.536-3.7857-102.91-1.7938-107.92 4.7217-11.871 51.446-8.7996 65.677 4.318 12.96 11.946 16.127 38.97 5.9641 50.88-5.8844 6.8957-1.7693 23.315 5.3965 21.532 6.9505-1.7298 7.6677-1.6945 9.6306 0.47444 8.9546 9.8947-4.9929 30.087-21.871 31.663-15.908 1.4855-25.265-7.52-27.589-26.554-1.3771-11.277-4.3537-14.617-7.106-7.972-1.5494 3.7408-1.6064 5.9266-0.5313 20.388 0.6594 8.8698 0.5526 11.244-0.5444 12.113-2.1322 1.6891-25.15 2.5968-27.233 1.074zm34.37-61.38c9.7171-5.7401 9.3364-25.06-0.5303-26.911-7.9023-1.4825-8.7663-0.0408-8.3037 13.856 0.5178 15.552 1.6859 17.278 8.834 13.056zm87.998 61.785c0-0.48124-1.3846-1.1519-3.0768-1.4904-12.382-2.4763-19.615-17.999-14.042-30.135 3.5556-7.743 5.049-8.2313 11.688-3.8215 6.8755 4.5669 21.378 6.2319 24.767 2.8434 5.3327-5.3326-0.392-11.724-14.41-16.088-30.039-9.3515-31.789-49.442-2.8169-64.537 14.047-7.3187 38.991 6.1049 38.87 20.918-0.09 10.938-6.6623 14.696-17.02 9.7319-8.366-4.0093-10.93-4.3404-13.303-1.7182-4.2908 4.7412-1.3047 8.0909 11.272 12.645 33.021 11.957 40.453 48.032 13.688 66.447-7.1646 4.9294-35.615 9.0865-35.615 5.2041zm-290.14-129.8c-10.683-0.56474-11.044-1.076-12.074-17.117-1.1992-18.674-1.116-79.737 0.11184-82.031 1.8896-3.5307 37.335-4.7769 47.766-1.6794 16.257 4.8278 24.046 23.255 16.009 37.876-3.604 6.5568-3.604 6.5568 0.97324 11.843 15.24 17.601 11.804 40.223-7.5021 49.384-3.7673 1.7877-27.211 2.6812-45.284 1.7258zm27.714-22.449c5.3693-1.352 8.4169-4.819 8.4169-9.5754 0-7.1394-3.5885-9.2994-15.449-9.2994-9.0439 0-9.5508 0.53074-9.5508 10 0 10.366 3.4112 12.191 16.583 8.8748zm-4.4346-41.359c5.4147-0.84317 8.8514-3.9518 8.8514-8.0064 0-7.2361-3.3092-9.5092-13.843-9.5092-7.9401 0-8.1644 0.22953-8.143 8.3318 0.0284 10.735 0.60085 11.136 13.135 9.1838zm43.276 63.147c-0.48621-1.267 2.7028-8.3576 17.839-39.663 3.59-7.425 7.9429-16.875 9.6732-21 9.9132-23.633 19.517-39.007 22.478-35.983 1.8389 1.8783 47.586 93.541 47.586 95.347 0 1.655-15.886 3.0105-19.441 1.6588-1.2841-0.48823-3.4061-2.8305-4.7155-5.2051-2.3806-4.3174-2.3806-4.3174-21.862-4.6011-23.311-0.33948-23.158-0.36845-25.499 4.823-1.0125 2.2452-2.6306 4.5049-3.5958 5.0215-2.8629 1.5322-21.851 1.1959-22.462-0.39786zm61.295-31.374c0.7634-1.9894-10.533-24.289-12.304-24.289-2.3168 0-12.375 23.707-10.749 25.333 1.6527 1.6527 22.378 0.71356 23.053-1.0446zm48.621 31.461c-2.5703-4.1331-2.8879-95.651-0.3407-98.159 2.5277-2.4886 43.443-2.5837 51.872-0.12056 24.735 7.228 32.118 39.969 13.378 59.324-5.2746 5.4476-5.2714 6.2609 0.052 13.144 4.6662 6.0326 13.974 20.497 14.992 23.297 1.0188 2.8023-2.3435 3.7652-13.147 3.7652-13.023 0-12.174 0.54352-20.118-12.881-8.9909-15.194-10.33-16.416-18.562-16.94-7.4937-0.47716-6.7551-2.3163-6.4763 16.125 0.1082 7.1555-0.2418 11.293-1.0365 12.25-1.5896 1.9154-19.439 2.0849-20.614 0.19573zm45.272-55.271c6.9459-4.0582 8.3199-12.376 2.8874-17.479-2.9503-2.7717-20.282-5.2561-23.323-3.3431-2.6116 1.6432-3.0052 21.246-0.4651 23.165 2.8095 2.1228 15.737 0.67352 20.9-2.3432zm48.496 54.723c-1.3978-2.6118-1.3644-96.809 0.035-99.453 0.8485-1.6028 3.2569-1.7488 28.641-1.7353 34.196 0.01819 32.607-0.4992 33.005 10.752 0.452 12.79 1.3488 12.233-19.703 12.233-21.026 0-20.307-0.36743-19.883 10.158 0.2957 7.3425 0.2957 7.3425 10.398 7.8425 13.54 0.67015 13.538 0.66854 13.181 13.4-0.2833 10.1-0.2833 10.1-11.533 10.383-11.25 0.28275-11.25 0.28275-11.25 7.25s0 6.9672 17.378 6.9672c20.69 0 19.975-0.39891 20.445 11.403 0.488 12.238 2.6903 11.371-30.96 12.191-28.37 0.69157-28.647 0.67863-29.755-1.3908zm-395.6 130.92c-22.302-0.99521-21.803-0.27479-22.573-32.58-1.4138-59.337-0.77792-77.397 2.8387-80.628 6.4135-5.7287 59.069-3.9371 70.524 2.3996 15.498 8.5731 19.435 36.285 6.8366 48.12-3.9855 3.7441-3.9323 5.3895 0.30705 9.4985 7.9353 7.6912 10.617 23.446 5.6273 33.064-9.2608 17.854-22.254 21.968-63.561 20.125zm25.372-27.23c9.2549-3.2263 5.0481-17.157-5.6129-18.587-6.6438-0.8911-7.5036 0.40918-6.6855 10.109 0.88265 10.466 2.8014 11.788 12.298 8.4774zm-0.6403-46.019c8.6958-4.6539 2.7899-18.435-7.5766-17.679-4.155 0.30286-4.155 0.30286-4.4492 8.784-0.3812 10.99 3.1838 13.627 12.026 8.895zm63.095 73.502c-3.8345-0.87672-7.0063-5.0337-7.7279-10.128-1.1969-8.4499-2.5378-46.086-2.5688-72.099-0.0415-34.816-3.2908-32.15 39.179-32.15 38.519 0 35.413-1.074 36.339 12.564 0.97429 14.348-0.78156 15.874-17.111 14.869-16.215-0.99855-16.601-0.83685-16.234 6.8071 0.35384 7.3621 0.6199 7.5076 14.007 7.6608 10.368 0.11866 11.27 1.5067 10.649 16.401-0.47949 11.513-0.61484 11.626-14.391 11.945-10.968 0.25399-10.968 0.25399-11.264 6.4441-0.38676 8.0837 0.0707 8.305 16.893 8.1731 17.006-0.13339 16.903-0.22359 16.903 14.748 0 14.514 0.15504 14.388-17.75 14.393-7.5625 0.002-20.725 0.19865-29.25 0.43737-8.525 0.23873-16.478 0.21047-17.673-0.0628zm81.699-0.73294c-4.4279-1.4594-6.1841-4.7489-4.8085-9.007 0.55753-1.7259 2.0667-7.0082 3.3537-11.738 1.287-4.7302 3.3124-11.03 4.5009-14 4.6934-11.728 8.271-23.312 13.555-43.89 8.9118-34.705 9.1867-35.009 31.57-35.009 18.943 0 19.483 0.24494 23.638 10.709 3.5087 8.8382 12.594 37 13.643 42.291 0.3818 1.925 3.5188 12.275 6.9711 23 12.844 39.902 13.368 37.257-7.5547 38.176-18.716 0.82199-19.473 0.50672-22.116-9.2152-2.399-8.8235-2.9236-9.1759-14.488-9.7328-11.35-0.54655-11.217-0.62569-13.74 8.1697-2.932 10.222-4.9398 11.419-19.13 11.405-6.5557-0.007-13.483-0.52767-15.393-1.1574zm56.864-46.252c3.2475-1.0219-3.9269-33.893-7.3974-33.893-2.7457 0-10.292 29.138-8.4416 32.595 1.3456 2.5143 9.7772 3.2049 15.839 1.2973zm58.824 46.424c-2.1752-1.6344-3.9336-102.84-1.8765-108.01 3.2543-8.182 47.329-9.9085 63.536-2.4889 20.553 9.4093 29.612 41.859 16.105 57.687-5.8844 6.8957-1.7693 23.315 5.3965 21.532 6.9505-1.7298 7.6677-1.6945 9.6306 0.47443 8.9546 9.8947-4.9929 30.087-21.871 31.663-15.908 1.4855-25.265-7.52-27.589-26.554-1.3771-11.277-4.3537-14.617-7.106-7.972-1.5494 3.7408-1.6064 5.9266-0.5313 20.388 0.659 8.8656 0.5521 11.25-0.5444 12.14-2.2138 1.7962-32.951 2.7968-35.15 1.1442zm42.287-61.476c9.7171-5.7401 9.3364-25.06-0.5303-26.911-7.9023-1.4825-8.7663-0.0408-8.3037 13.856 0.5178 15.552 1.6859 17.278 8.834 13.056zm82.717 61.57c-17.503-2.5612-26.482-16.825-19.822-31.489 4.1705-9.1825 9.457-10.381 18.837-4.2695 10.538 6.8655 19.267 6.3582 19.267-1.1197 0-4.4686-5.1806-8.2064-16.075-11.598-37.12-11.556-27.959-66.92 11.075-66.931 21.716-0.006 37.733 15.48 31.105 30.073-3.0334 6.6788-6.1388 7.2879-15.147 2.9708-8.366-4.0093-10.93-4.3404-13.303-1.7182-4.2908 4.7412-1.3047 8.0909 11.272 12.645 33.021 11.957 40.453 48.032 13.688 66.447-8.1616 5.6154-23.68 7.5085-40.896 4.9892z" stroke="#44382a" stroke-width="4" fill="#44382a"/>
   <path id="path5250" d="m907.96 193.86c-10.683-0.56474-11.044-1.076-12.074-17.117-1.1992-18.674-1.116-79.737 0.11184-82.031 1.8896-3.5307 37.335-4.7769 47.766-1.6794 16.257 4.8278 24.046 23.255 16.009 37.876-3.604 6.5568-3.604 6.5568 0.97324 11.843 15.24 17.601 11.804 40.223-7.5021 49.384-3.7673 1.7877-27.211 2.6812-45.284 1.7258zm27.714-22.449c5.3693-1.352 8.4169-4.819 8.4169-9.5754 0-7.1394-3.5885-9.2994-15.449-9.2994-9.0439 0-9.5508 0.53074-9.5508 10 0 10.366 3.4112 12.191 16.583 8.8748zm-4.4346-41.359c5.4147-0.84317 8.8514-3.9518 8.8514-8.0064 0-7.2361-3.3092-9.5092-13.843-9.5092-7.9401 0-8.1644 0.22953-8.143 8.3318 0.0284 10.735 0.60085 11.136 13.135 9.1838zm43.276 63.147c-0.48621-1.267 2.7028-8.3576 17.839-39.663 3.59-7.425 7.9429-16.875 9.6732-21 9.9132-23.633 19.517-39.007 22.478-35.983 1.8389 1.8783 47.586 93.541 47.586 95.347 0 1.655-15.886 3.0105-19.441 1.6588-1.2841-0.48823-3.4061-2.8305-4.7155-5.2051-2.3806-4.3174-2.3806-4.3174-21.862-4.6011-23.311-0.33948-23.158-0.36845-25.499 4.823-1.0125 2.2452-2.6306 4.5049-3.5958 5.0215-2.8629 1.5322-21.851 1.1959-22.462-0.39786zm61.295-31.374c0.7634-1.9894-10.533-24.289-12.304-24.289-2.3168 0-12.375 23.707-10.749 25.333 1.6527 1.6527 22.378 0.71356 23.053-1.0446zm48.621 31.461c-2.5703-4.1331-2.8879-95.651-0.3407-98.159 2.5277-2.4886 43.443-2.5837 51.872-0.12056 24.735 7.228 32.118 39.969 13.378 59.324-5.2746 5.4476-5.2714 6.2609 0.052 13.144 4.6662 6.0326 13.974 20.497 14.992 23.297 1.0188 2.8023-2.3435 3.7652-13.147 3.7652-13.023 0-12.174 0.54352-20.118-12.881-8.9909-15.194-10.33-16.416-18.562-16.94-7.4937-0.47716-6.7551-2.3163-6.4763 16.125 0.1082 7.1555-0.2418 11.293-1.0365 12.25-1.5896 1.9154-19.439 2.0849-20.614 0.19573zm45.272-55.271c6.9459-4.0582 8.3199-12.376 2.8874-17.479-2.9503-2.7717-20.282-5.2561-23.323-3.3431-2.6116 1.6432-3.0052 21.246-0.4651 23.165 2.8095 2.1228 15.737 0.67352 20.9-2.3432zm48.496 54.723c-1.3978-2.6118-1.3644-96.809 0.035-99.453 0.8485-1.6028 3.2569-1.7488 28.641-1.7353 34.196 0.01819 32.607-0.4992 33.005 10.752 0.452 12.79 1.3488 12.233-19.703 12.233-21.026 0-20.307-0.36743-19.883 10.158 0.2957 7.3425 0.2957 7.3425 10.398 7.8425 13.54 0.67015 13.538 0.66854 13.181 13.4-0.2833 10.1-0.2833 10.1-11.533 10.383-11.25 0.28275-11.25 0.28275-11.25 7.25s0 6.9672 17.378 6.9672c20.69 0 19.975-0.39891 20.445 11.403 0.488 12.238 2.6903 11.371-30.96 12.191-28.37 0.69157-28.647 0.67863-29.755-1.3908z" fill="#da5c45"/>
   <path id="path5246" d="m782.6 323.66c-22.302-0.99521-21.803-0.27479-22.573-32.58-1.4138-59.337-0.77792-77.397 2.8387-80.628 6.4135-5.7287 59.069-3.9371 70.524 2.3996 15.498 8.5731 19.435 36.285 6.8366 48.12-3.9855 3.7441-3.9323 5.3895 0.30705 9.4985 7.9353 7.6912 10.617 23.446 5.6273 33.064-9.2608 17.854-22.254 21.968-63.561 20.125zm25.372-27.23c9.2549-3.2263 5.0481-17.157-5.6129-18.587-6.6438-0.8911-7.5036 0.40918-6.6855 10.109 0.88265 10.466 2.8014 11.788 12.298 8.4774zm-0.6403-46.019c8.6958-4.6539 2.7899-18.435-7.5766-17.679-4.155 0.30286-4.155 0.30286-4.4492 8.784-0.3812 10.99 3.1838 13.627 12.026 8.895zm63.095 73.502c-3.8345-0.87672-7.0063-5.0337-7.7279-10.128-1.1969-8.4499-2.5378-46.086-2.5688-72.099-0.0415-34.816-3.2908-32.15 39.179-32.15 38.519 0 35.413-1.074 36.339 12.564 0.97429 14.348-0.78156 15.874-17.111 14.869-16.215-0.99855-16.601-0.83685-16.234 6.8071 0.35384 7.3621 0.6199 7.5076 14.007 7.6608 10.368 0.11866 11.27 1.5067 10.649 16.401-0.47949 11.513-0.61484 11.626-14.391 11.945-10.968 0.25399-10.968 0.25399-11.264 6.4441-0.38676 8.0837 0.0707 8.305 16.893 8.1731 17.006-0.13339 16.903-0.22359 16.903 14.748 0 14.514 0.15504 14.388-17.75 14.393-7.5625 0.002-20.725 0.19865-29.25 0.43737-8.525 0.23873-16.478 0.21047-17.673-0.0628zm81.699-0.73294c-4.4279-1.4594-6.1841-4.7489-4.8085-9.007 0.55753-1.7259 2.0667-7.0082 3.3537-11.738 1.287-4.7302 3.3124-11.03 4.5009-14 4.6934-11.728 8.271-23.312 13.555-43.89 8.9118-34.705 9.1867-35.009 31.57-35.009 18.943 0 19.483 0.24494 23.638 10.709 3.5087 8.8382 12.594 37 13.643 42.291 0.3818 1.925 3.5188 12.275 6.9711 23 12.844 39.902 13.368 37.257-7.5547 38.176-18.716 0.82199-19.473 0.50672-22.116-9.2152-2.399-8.8235-2.9236-9.1759-14.488-9.7328-11.35-0.54655-11.217-0.62569-13.74 8.1697-2.932 10.222-4.9398 11.419-19.13 11.405-6.5557-0.007-13.483-0.52767-15.393-1.1574zm56.864-46.252c3.2475-1.0219-3.9269-33.893-7.3974-33.893-2.7457 0-10.292 29.138-8.4416 32.595 1.3456 2.5143 9.7772 3.2049 15.839 1.2973zm58.824 46.424c-2.1752-1.6344-3.9336-102.84-1.8765-108.01 3.2543-8.182 47.329-9.9085 63.536-2.4889 20.553 9.4093 29.612 41.859 16.105 57.687-5.8844 6.8957-1.7693 23.315 5.3965 21.532 6.9505-1.7298 7.6677-1.6945 9.6306 0.47443 8.9546 9.8947-4.9929 30.087-21.871 31.663-15.908 1.4855-25.265-7.52-27.589-26.554-1.3771-11.277-4.3537-14.617-7.106-7.972-1.5494 3.7408-1.6064 5.9266-0.5313 20.388 0.659 8.8656 0.5521 11.25-0.5444 12.14-2.2138 1.7962-32.951 2.7968-35.15 1.1442zm42.287-61.476c9.7171-5.7401 9.3364-25.06-0.5303-26.911-7.9023-1.4825-8.7663-0.0408-8.3037 13.856 0.5178 15.552 1.6859 17.278 8.834 13.056zm82.717 61.57c-17.503-2.5612-26.482-16.825-19.822-31.489 4.1705-9.1825 9.457-10.381 18.837-4.2695 10.538 6.8655 19.267 6.3582 19.267-1.1197 0-4.4686-5.1806-8.2064-16.075-11.598-37.12-11.556-27.959-66.92 11.075-66.931 21.716-0.006 37.733 15.48 31.105 30.073-3.0334 6.6788-6.1388 7.2879-15.147 2.9708-8.366-4.0093-10.93-4.3404-13.303-1.7182-4.2908 4.7412-1.3047 8.0909 11.272 12.645 33.021 11.957 40.453 48.032 13.688 66.447-8.1616 5.6154-23.68 7.5085-40.896 4.9892z" fill="#c4d9c7"/>
   <path id="path5252" d="m786.55 323.68c-17.592-1.1246-17.72-1.349-18.501-32.642-1.4633-58.61-0.80929-77.348 2.8124-80.583 6.2739-5.604 51.17-3.8809 62.524 2.3996 15.498 8.5731 19.435 36.285 6.8366 48.12-3.9855 3.7441-3.9323 5.3895 0.30705 9.4985 7.9353 7.6912 10.617 23.446 5.6273 33.064-8.9794 17.312-24.077 22.413-59.607 20.142zm21.418-27.247c9.2549-3.2263 5.0481-17.157-5.6129-18.587-6.6438-0.89111-7.5036 0.40917-6.6855 10.109 0.88265 10.466 2.8014 11.788 12.298 8.4775zm-0.6403-46.019c8.6958-4.6539 2.7899-18.435-7.5766-17.679-4.155 0.30286-4.155 0.30286-4.4492 8.784-0.3812 10.99 3.1838 13.627 12.026 8.895zm71.095 73.496c-3.8299-0.86467-7.0059-5.0247-7.7279-10.122-1.1969-8.4499-2.5378-46.086-2.5688-72.099-0.0411-34.541-2.6571-32.15 35.179-32.15 33.975 0 31.418-0.99308 32.339 12.564 0.97429 14.348-0.78156 15.874-17.111 14.869-16.215-0.99854-16.601-0.83684-16.234 6.8071 0.35384 7.3621 0.6199 7.5076 14.007 7.6608 10.368 0.11865 11.27 1.5067 10.649 16.401-0.47949 11.513-0.61484 11.626-14.391 11.945-10.968 0.25398-10.968 0.25398-11.264 6.4441-0.38676 8.0837 0.0707 8.305 16.893 8.1731 17.006-0.13339 16.903-0.22359 16.903 14.748 0 14.714 0.44753 14.388-19.75 14.394-8.6625 0.003-20.025 0.19687-25.25 0.43115-5.225 0.23429-10.478 0.2052-11.673-0.0646zm81.31-0.87168c-4.0623-1.3168-5.7584-4.7177-4.4196-8.862 0.55753-1.7259 2.0667-7.0082 3.3537-11.738 1.287-4.7302 3.3124-11.03 4.5009-14 4.6934-11.728 8.271-23.312 13.555-43.89 8.5958-33.474 9.805-35.009 27.57-35.009 14.455 0 15.644 0.64802 19.638 10.709 3.5087 8.8382 12.594 37 13.643 42.291 0.3818 1.925 3.5188 12.275 6.9711 23 12.648 39.293 12.873 37.384-4.4422 37.782-14.443 0.33154-15.257-0.0728-17.146-8.5133-2.1171-9.4602-2.4863-9.6614-18.541-10.102-15.863-0.43565-15.195-0.74512-17.77 8.2315-3.1626 11.026-12.847 14.662-26.913 10.102zm49.253-46.107c3.2475-1.0219-3.9269-33.893-7.3974-33.893-2.7457 0-10.292 29.138-8.4416 32.595 1.3456 2.5143 9.7772 3.2049 15.839 1.2973zm66.742 46.327c-2.1006-1.536-3.7857-102.91-1.7938-107.92 4.7217-11.871 51.446-8.7996 65.677 4.318 12.96 11.946 16.127 38.97 5.9641 50.88-5.8844 6.8957-1.7693 23.315 5.3965 21.532 6.9505-1.7298 7.6677-1.6945 9.6306 0.47444 8.9546 9.8947-4.9929 30.087-21.871 31.663-15.908 1.4855-25.265-7.52-27.589-26.554-1.3771-11.277-4.3537-14.617-7.106-7.972-1.5494 3.7408-1.6064 5.9266-0.5313 20.388 0.6594 8.8698 0.5526 11.244-0.5444 12.113-2.1322 1.6891-25.15 2.5968-27.233 1.074zm34.37-61.38c9.7171-5.7401 9.3364-25.06-0.5303-26.911-7.9023-1.4825-8.7663-0.0408-8.3037 13.856 0.5178 15.552 1.6859 17.278 8.834 13.056zm87.998 61.785c0-0.48124-1.3846-1.1519-3.0768-1.4904-12.382-2.4763-19.615-17.999-14.042-30.135 3.5556-7.743 5.049-8.2313 11.688-3.8215 6.8755 4.5669 21.378 6.2319 24.767 2.8434 5.3327-5.3326-0.392-11.724-14.41-16.088-30.039-9.3515-31.789-49.442-2.8169-64.537 14.047-7.3187 38.991 6.1049 38.87 20.918-0.09 10.938-6.6623 14.696-17.02 9.7319-8.366-4.0093-10.93-4.3404-13.303-1.7182-4.2908 4.7412-1.3047 8.0909 11.272 12.645 33.021 11.957 40.453 48.032 13.688 66.447-7.1646 4.9294-35.615 9.0865-35.615 5.2041z" fill="#efeede"/>
  </g>
 </g>
</svg>
